# xmcd
#
# Track frame offsets:
#	150
#	16691
#	30120
#	45606
#	60787
#	75694
#	90348
#	104627
#	124615
#	137840
#	153902
#	169428
#	184343
#	200941
#
# Disc length: 2887 seconds
#
# Revision: 1
# Processed by: cddbd v1.5.1PL0 Copyright (c) Steve Scherf et al.
# Submitted via: EasyCDDAExtractor 6.5.7.1
#
DISCID=ad0b450e
DTITLE=Ataíde and Alexandre - Tá Nervoso...Vai Pesca
DYEAR=2004
DGENRE=Sertanejo
TTITLE0=Quando O Amor É Pra Valer
TTITLE1=Tá Nervoso...Vai Pesca
TTITLE2=Chuva De Mulher
TTITLE3=Baby
TTITLE4=Mulher Boa Era A Maria
TTITLE5=Deu Branco
TTITLE6=Todo Mundo Tem
TTITLE7=O Seu Perfume Está No Ar
TTITLE8=Clareou Clareou
TTITLE9=Madrudgadeiro
TTITLE10=Feiticeiro
TTITLE11=Se Amanhã Não Chover
TTITLE12=Todas As Noites
TTITLE13=Na Hora De Amar
EXTD=
EXTT0=
EXTT1=
EXTT2=
EXTT3=
EXTT4=
EXTT5=
EXTT6=
EXTT7=
EXTT8=
EXTT9=
EXTT10=
EXTT11=
EXTT12=
EXTT13=
PLAYORDER=
